<svg width="13" height="11" viewBox="0 0 13 11" fill="none" xmlns="http://www.w3.org/2000/svg">
<path d="M3.19794 0.900021V10H2.26194V1.73202H0.116943V0.900021H3.19794Z" fill="#2C2C2C"/>
<path d="M9.00021 10.078C8.29821 10.078 7.66988 9.89169 7.11521 9.51902C6.56921 9.14636 6.14021 8.61336 5.82821 7.92002C5.52488 7.21802 5.37321 6.39469 5.37321 5.45002C5.37321 4.50536 5.52488 3.68635 5.82821 2.99302C6.14021 2.29102 6.56921 1.75369 7.11521 1.38102C7.66988 1.00835 8.29821 0.822021 9.00021 0.822021C9.70221 0.822021 10.3262 1.00835 10.8722 1.38102C11.4269 1.75369 11.8602 2.29102 12.1722 2.99302C12.4842 3.68635 12.6402 4.50536 12.6402 5.45002C12.6402 6.39469 12.4842 7.21802 12.1722 7.92002C11.8602 8.61336 11.4269 9.14636 10.8722 9.51902C10.3262 9.89169 9.70221 10.078 9.00021 10.078ZM9.00021 9.22002C9.52888 9.22002 9.99254 9.07269 10.3912 8.77802C10.7985 8.48336 11.1149 8.05436 11.3402 7.49102C11.5655 6.92769 11.6782 6.24736 11.6782 5.45002C11.6782 4.65269 11.5655 3.97235 11.3402 3.40902C11.1149 2.84569 10.7985 2.41669 10.3912 2.12202C9.99254 1.82735 9.52888 1.68002 9.00021 1.68002C8.47154 1.68002 8.00354 1.82735 7.59621 2.12202C7.19754 2.41669 6.88554 2.84569 6.66021 3.40902C6.43488 3.97235 6.32221 4.65269 6.32221 5.45002C6.32221 6.24736 6.43488 6.92769 6.66021 7.49102C6.88554 8.05436 7.19754 8.48336 7.59621 8.77802C8.00354 9.07269 8.47154 9.22002 9.00021 9.22002Z" fill="#2C2C2C"/>
</svg>
