<svg width="8" height="11" viewBox="0 0 8 11" fill="none" xmlns="http://www.w3.org/2000/svg">
<path d="M4.05998 4.39995C5.08664 4.45595 5.86598 4.73595 6.39798 5.23995C6.93931 5.73462 7.20998 6.38329 7.20998 7.18595C7.20998 7.74595 7.07464 8.24529 6.80398 8.68395C6.53331 9.11329 6.13198 9.45395 5.59998 9.70595C5.06798 9.95795 4.41931 10.084 3.65398 10.084C2.94464 10.084 2.27264 9.97195 1.63798 9.74795C1.01264 9.51462 0.508643 9.20662 0.125977 8.82395L0.615977 8.02595C0.942643 8.36195 1.37664 8.63728 1.91798 8.85195C2.45931 9.05728 3.03798 9.15995 3.65398 9.15995C4.45664 9.15995 5.07731 8.98729 5.51598 8.64195C5.95464 8.28729 6.17398 7.80195 6.17398 7.18595C6.17398 6.57929 5.95464 6.10329 5.51598 5.75795C5.07731 5.41262 4.41464 5.23995 3.52798 5.23995H2.82798V4.49795L5.54398 1.09595H0.531977V0.199951H6.83198V0.913951L4.05998 4.39995Z" fill="#2C2C2C"/>
</svg>
