<svg width="8" height="11" viewBox="0 0 8 11" fill="none" xmlns="http://www.w3.org/2000/svg">
<path d="M3.30411 4.21795C4.72277 4.21795 5.75411 4.47462 6.39811 4.98795C7.05144 5.49195 7.37811 6.20129 7.37811 7.11595C7.37811 7.68529 7.24277 8.19395 6.97211 8.64195C6.71077 9.08995 6.31411 9.44462 5.78211 9.70595C5.25011 9.95795 4.59677 10.084 3.82211 10.084C3.12211 10.084 2.45477 9.97195 1.82011 9.74795C1.19477 9.51462 0.690772 9.20662 0.308105 8.82395L0.798105 8.02595C1.12477 8.36195 1.55411 8.63728 2.08611 8.85195C2.61811 9.05728 3.19211 9.15995 3.80811 9.15995C4.62011 9.15995 5.24544 8.97795 5.68411 8.61395C6.13211 8.24995 6.35611 7.76462 6.35611 7.15795C6.35611 6.48595 6.10411 5.97729 5.60011 5.63195C5.10544 5.28662 4.26544 5.11395 3.08011 5.11395H0.994105L1.49811 0.199951H6.86011V1.09595H2.38011L2.04411 4.21795H3.30411Z" fill="#2C2C2C"/>
</svg>
