<svg width="9" height="11" viewBox="0 0 9 11" fill="none" xmlns="http://www.w3.org/2000/svg">
<path d="M4.78803 4.13397C5.43203 4.13397 6.00136 4.2553 6.49603 4.49797C7.00003 4.74063 7.39203 5.08597 7.67203 5.53397C7.95203 5.97263 8.09203 6.48597 8.09203 7.07397C8.09203 7.6713 7.94736 8.19863 7.65803 8.65597C7.36869 9.1133 6.96736 9.46797 6.45403 9.71997C5.95003 9.96263 5.38069 10.084 4.74603 10.084C3.44869 10.084 2.45469 9.6593 1.76403 8.80997C1.07336 7.9513 0.728027 6.74263 0.728027 5.18397C0.728027 4.09197 0.914694 3.16797 1.28803 2.41197C1.66136 1.65597 2.18403 1.08663 2.85603 0.703967C3.52803 0.311967 4.31203 0.115967 5.20803 0.115967C6.17869 0.115967 6.95336 0.2933 7.53203 0.647966L7.12603 1.45997C6.65936 1.15197 6.02469 0.997967 5.22203 0.997967C4.13936 0.997967 3.29003 1.3433 2.67403 2.03397C2.05803 2.7153 1.75003 3.7093 1.75003 5.01597C1.75003 5.2493 1.76403 5.5153 1.79203 5.81397C2.03469 5.28197 2.42203 4.8713 2.95403 4.58197C3.48603 4.2833 4.09736 4.13397 4.78803 4.13397ZM4.70403 9.22997C5.41336 9.22997 5.98736 9.03863 6.42603 8.65597C6.87403 8.26397 7.09803 7.74597 7.09803 7.10197C7.09803 6.45797 6.87403 5.94463 6.42603 5.56197C5.98736 5.1793 5.39003 4.98797 4.63403 4.98797C4.13936 4.98797 3.70069 5.0813 3.31803 5.26797C2.94469 5.45463 2.65069 5.7113 2.43603 6.03797C2.22136 6.36463 2.11403 6.72863 2.11403 7.12997C2.11403 7.5033 2.21203 7.84863 2.40803 8.16597C2.61336 8.4833 2.91203 8.73997 3.30403 8.93597C3.69603 9.13197 4.16269 9.22997 4.70403 9.22997Z" fill="#2C2C2C"/>
</svg>
