<svg width="9" height="11" viewBox="0 0 9 11" fill="none" xmlns="http://www.w3.org/2000/svg">
<path d="M6.34188 4.86197C6.95788 5.0673 7.42921 5.3753 7.75588 5.78597C8.09188 6.19663 8.25988 6.6913 8.25988 7.26997C8.25988 7.8393 8.10588 8.33863 7.79788 8.76797C7.48988 9.18797 7.04654 9.51463 6.46788 9.74797C5.89854 9.97197 5.22654 10.084 4.45188 10.084C3.27588 10.084 2.35188 9.83197 1.67988 9.32797C1.00788 8.82397 0.671875 8.13797 0.671875 7.26997C0.671875 6.68197 0.830542 6.1873 1.14788 5.78597C1.47454 5.3753 1.94588 5.0673 2.56188 4.86197C2.05788 4.66597 1.67521 4.38597 1.41388 4.02197C1.15254 3.64863 1.02188 3.20997 1.02188 2.70597C1.02188 1.91263 1.32988 1.28263 1.94588 0.815967C2.57121 0.3493 3.40654 0.115967 4.45188 0.115967C5.14254 0.115967 5.74454 0.2233 6.25788 0.437967C6.78054 0.6433 7.18654 0.941967 7.47588 1.33397C7.76521 1.72597 7.90987 2.1833 7.90987 2.70597C7.90987 3.20997 7.77454 3.64863 7.50388 4.02197C7.23321 4.38597 6.84588 4.66597 6.34188 4.86197ZM2.02988 2.73397C2.02988 3.2753 2.24454 3.70463 2.67388 4.02197C3.10321 4.3393 3.69588 4.49797 4.45188 4.49797C5.20788 4.49797 5.80054 4.3393 6.22988 4.02197C6.66854 3.70463 6.88788 3.27997 6.88788 2.74797C6.88788 2.1973 6.66388 1.7633 6.21588 1.44597C5.77721 1.12863 5.18921 0.969966 4.45188 0.969966C3.70521 0.969966 3.11254 1.12863 2.67388 1.44597C2.24454 1.7633 2.02988 2.19263 2.02988 2.73397ZM4.45188 9.22997C5.31988 9.22997 5.99654 9.05263 6.48188 8.69797C6.97654 8.3433 7.22388 7.86263 7.22388 7.25597C7.22388 6.6493 6.97654 6.1733 6.48188 5.82797C5.99654 5.4733 5.31988 5.29597 4.45188 5.29597C3.59321 5.29597 2.91654 5.4733 2.42188 5.82797C1.93654 6.1733 1.69388 6.6493 1.69388 7.25597C1.69388 7.87197 1.93654 8.3573 2.42188 8.71197C2.90721 9.0573 3.58388 9.22997 4.45188 9.22997Z" fill="#2C2C2C"/>
</svg>
