<svg width="8" height="11" viewBox="0 0 8 11" fill="none" xmlns="http://www.w3.org/2000/svg">
<path d="M3.78008 0.115967C5.07742 0.115967 6.07142 0.5453 6.76208 1.40397C7.45275 2.2533 7.79808 3.4573 7.79808 5.01597C7.79808 6.10797 7.61142 7.03197 7.23808 7.78797C6.86475 8.54397 6.34208 9.11797 5.67008 9.50997C4.99808 9.89263 4.21408 10.084 3.31808 10.084C2.34742 10.084 1.57275 9.90663 0.994082 9.55197L1.40008 8.73997C1.86675 9.04797 2.50142 9.20197 3.30408 9.20197C4.38675 9.20197 5.23608 8.8613 5.85208 8.17997C6.46808 7.4893 6.77608 6.49063 6.77608 5.18397C6.77608 4.9413 6.76208 4.6753 6.73408 4.38597C6.49142 4.91797 6.10408 5.3333 5.57208 5.63197C5.04008 5.9213 4.42875 6.06597 3.73808 6.06597C3.09408 6.06597 2.52008 5.94463 2.01608 5.70197C1.52142 5.4593 1.13408 5.11863 0.854082 4.67997C0.574082 4.23197 0.434082 3.71397 0.434082 3.12597C0.434082 2.52863 0.578749 2.0013 0.868082 1.54397C1.15742 1.08663 1.55408 0.736633 2.05808 0.493967C2.57142 0.241967 3.14542 0.115967 3.78008 0.115967ZM3.89208 5.21197C4.38675 5.21197 4.82075 5.11863 5.19408 4.93197C5.57675 4.7453 5.87542 4.48863 6.09008 4.16197C6.30475 3.8353 6.41208 3.4713 6.41208 3.06997C6.41208 2.69663 6.30942 2.3513 6.10408 2.03397C5.90808 1.71663 5.61408 1.45997 5.22208 1.26397C4.83008 1.06797 4.36342 0.969966 3.82208 0.969966C3.11275 0.969966 2.53408 1.16597 2.08608 1.55797C1.64742 1.94063 1.42808 2.45397 1.42808 3.09797C1.42808 3.74197 1.64742 4.2553 2.08608 4.63797C2.53408 5.02063 3.13608 5.21197 3.89208 5.21197Z" fill="#2C2C2C"/>
</svg>
