<svg width="8" height="14" viewBox="0 0 8 14" fill="none" xmlns="http://www.w3.org/2000/svg">
<path fill-rule="evenodd" clip-rule="evenodd" d="M7.35404 0.646039C7.4006 0.692485 7.43754 0.747661 7.46275 0.808406C7.48796 0.869151 7.50093 0.934272 7.50093 1.00004C7.50093 1.06581 7.48796 1.13093 7.46275 1.19167C7.43754 1.25242 7.4006 1.30759 7.35404 1.35404L1.70704 7.00004L7.35404 12.646C7.44793 12.7399 7.50067 12.8673 7.50067 13C7.50067 13.1328 7.44793 13.2602 7.35404 13.354C7.26015 13.4479 7.13281 13.5007 7.00004 13.5007C6.86726 13.5007 6.73993 13.4479 6.64604 13.354L0.646039 7.35404C0.599476 7.30759 0.562533 7.25242 0.537326 7.19167C0.51212 7.13093 0.499146 7.06581 0.499146 7.00004C0.499146 6.93427 0.51212 6.86915 0.537326 6.80841C0.562533 6.74766 0.599476 6.69248 0.646039 6.64604L6.64604 0.646039C6.69248 0.599476 6.74766 0.562533 6.80841 0.537327C6.86915 0.51212 6.93427 0.499146 7.00004 0.499146C7.06581 0.499146 7.13093 0.51212 7.19167 0.537327C7.25242 0.562533 7.30759 0.599476 7.35404 0.646039Z" fill="black"/>
</svg>
