<svg width="16" height="16" viewBox="0 0 16 16" fill="none" xmlns="http://www.w3.org/2000/svg">
    <path fill-rule="evenodd" clip-rule="evenodd" d="M4.64592 1.64604C4.69236 1.59948 4.74754 1.56253 4.80828 1.53733C4.86903 1.51212 4.93415 1.49915 4.99992 1.49915C5.06568 1.49915 5.13081 1.51212 5.19155 1.53733C5.2523 1.56253 5.30747 1.59948 5.35392 1.64604L11.3539 7.64604C11.4005 7.69248 11.4374 7.74766 11.4626 7.80841C11.4878 7.86915 11.5008 7.93427 11.5008 8.00004C11.5008 8.06581 11.4878 8.13093 11.4626 8.19167C11.4374 8.25242 11.4005 8.30759 11.3539 8.35404L5.35392 14.354C5.26003 14.4479 5.13269 14.5007 4.99992 14.5007C4.86714 14.5007 4.7398 14.4479 4.64592 14.354C4.55203 14.2602 4.49929 14.1328 4.49929 14C4.49929 13.8673 4.55203 13.7399 4.64592 13.646L10.2929 8.00004L4.64592 2.35404C4.59935 2.30759 4.56241 2.25242 4.5372 2.19167C4.512 2.13093 4.49902 2.06581 4.49902 2.00004C4.49902 1.93427 4.512 1.86915 4.5372 1.80841C4.56241 1.74766 4.59935 1.69249 4.64592 1.64604Z" fill="black"/>
</svg>
