<svg width="16" height="16" viewBox="0 0 16 16" fill="none" xmlns="http://www.w3.org/2000/svg">
    <path fill-rule="evenodd" clip-rule="evenodd" d="M11.354 1.64604C11.4006 1.69249 11.4375 1.74766 11.4628 1.80841C11.488 1.86915 11.5009 1.93427 11.5009 2.00004C11.5009 2.06581 11.488 2.13093 11.4628 2.19167C11.4375 2.25242 11.4006 2.30759 11.354 2.35404L5.70704 8.00004L11.354 13.646C11.4479 13.7399 11.5007 13.8673 11.5007 14C11.5007 14.1328 11.4479 14.2602 11.354 14.354C11.2602 14.4479 11.1328 14.5007 11 14.5007C10.8673 14.5007 10.7399 14.4479 10.646 14.354L4.64604 8.35404C4.59948 8.30759 4.56253 8.25242 4.53733 8.19167C4.51212 8.13093 4.49915 8.06581 4.49915 8.00004C4.49915 7.93427 4.51212 7.86915 4.53733 7.80841C4.56253 7.74766 4.59948 7.69248 4.64604 7.64604L10.646 1.64604C10.6925 1.59948 10.7477 1.56253 10.8084 1.53733C10.8692 1.51212 10.9343 1.49915 11 1.49915C11.0658 1.49915 11.1309 1.51212 11.1917 1.53733C11.2524 1.56253 11.3076 1.59948 11.354 1.64604Z" fill="black"/>
</svg>
