<svg width="6" height="18" viewBox="0 0 6 18" fill="none" xmlns="http://www.w3.org/2000/svg">
<path fill-rule="evenodd" clip-rule="evenodd" d="M4.81745 0.368609C5.0104 0.332985 5.20958 0.354915 5.39016 0.431669C5.57075 0.508423 5.72476 0.636608 5.83302 0.80026C5.94128 0.963908 5.999 1.15579 5.999 1.352C5.999 1.35201 5.999 1.352 5.999 1.352V16.93L5.999 16.9313C5.99851 17.1189 5.94524 17.3027 5.84528 17.4614C5.74532 17.6202 5.6027 17.7477 5.43372 17.8293C5.26474 17.9108 5.07622 17.9432 4.88971 17.9227C4.7032 17.9022 4.52622 17.8296 4.379 17.7133L0.756211 14.8387C0.520358 14.6513 0.329658 14.413 0.198752 14.1417C0.0678689 13.8704 -7.12609e-05 13.5732 5.6088e-08 13.272C5.6088e-08 13.272 5.6088e-08 13.2721 5.6088e-08 13.272V5.632C0.000166025 5.36307 0.0545679 5.09663 0.159952 4.8492C0.265303 4.60186 0.419441 4.37829 0.613153 4.19187C0.613213 4.19181 0.613092 4.19193 0.613153 4.19187L4.30494 0.632074C4.44621 0.495897 4.62449 0.404234 4.81745 0.368609ZM1.30667 4.91231C1.20977 5.00554 1.13267 5.11735 1.07998 5.24107C1.0273 5.36474 1.0001 5.49776 1 5.63218V13.272C0.999952 13.4226 1.03392 13.5714 1.09938 13.7071C1.16483 13.8427 1.26007 13.9618 1.378 14.0555L4.999 16.9287L4.999 1.352L1.30667 4.91231Z" fill="#C2CFE0"/>
</svg>
