<svg width="6" height="18" viewBox="0 0 6 18" fill="none" xmlns="http://www.w3.org/2000/svg">
<path fill-rule="evenodd" clip-rule="evenodd" d="M1.18255 17.6314C0.989596 17.667 0.790421 17.6451 0.609836 17.5683C0.429251 17.4916 0.275238 17.3634 0.166977 17.1997C0.0587196 17.0361 0.000997543 16.8442 0.000999928 16.648C0.000999928 16.648 0.000999928 16.648 0.000999928 16.648L0.000999928 1.07L0.00100183 1.0687C0.00148916 0.881062 0.0547585 0.69735 0.154719 0.538557C0.25468 0.379766 0.397299 0.2523 0.56628 0.170731C0.735263 0.089159 0.923782 0.0567818 1.11029 0.0772877C1.2968 0.0977955 1.47378 0.170366 1.621 0.286699L5.24379 3.16132C5.47964 3.34867 5.67034 3.58705 5.80125 3.85833C5.93213 4.12955 6.00007 4.42684 6 4.728C6 4.72805 6 4.72794 6 4.728L6 12.368C5.99983 12.6369 5.94543 12.9034 5.84005 13.1508C5.7347 13.3981 5.58056 13.6217 5.38685 13.8081C5.38679 13.8082 5.38691 13.8081 5.38685 13.8081L1.69506 17.3679C1.55379 17.5041 1.37551 17.5958 1.18255 17.6314ZM4.69333 13.0877C4.79023 12.9945 4.86733 12.8826 4.92002 12.7589C4.9727 12.6353 4.9999 12.5022 5 12.3678L5 4.728C5.00005 4.57739 4.96608 4.42856 4.90062 4.29292C4.83517 4.15729 4.73993 4.03818 4.622 3.94451L1.001 1.0713L1.001 16.648L4.69333 13.0877Z" fill="#C2CFE0"/>
</svg>
