<svg width="11" height="12" viewBox="0 0 11 12" fill="none" xmlns="http://www.w3.org/2000/svg">
<path d="M2.62229 11.616C2.62229 11.4947 2.59896 11.434 2.55229 11.434L2.23029 11.588C2.23029 11.5227 2.19296 11.476 2.11829 11.448L2.00629 11.434C1.93163 11.434 1.83829 11.4667 1.72629 11.532C1.70763 11.4853 1.68429 11.4387 1.65629 11.392C1.62829 11.3453 1.60496 11.3033 1.58629 11.266C1.46496 11.0327 1.34363 10.776 1.22229 10.496C1.11029 10.2067 1.00296 9.93133 0.900294 9.67C0.80696 9.40866 0.732294 9.20333 0.676294 9.054C0.63896 8.93267 0.59696 8.75067 0.550294 8.508C0.503627 8.26533 0.45696 7.95733 0.410294 7.584C0.51296 7.64933 0.592294 7.682 0.648294 7.682C0.713627 7.682 0.774294 7.584 0.830294 7.388C0.858294 7.42533 0.909627 7.444 0.984294 7.444C1.04029 7.444 1.08229 7.42533 1.11029 7.388L1.33429 7.052L1.58629 7.136H1.60029C1.61896 7.136 1.63763 7.12667 1.65629 7.108C1.67496 7.08933 1.70296 7.07067 1.74029 7.052C1.81496 7.00533 1.87096 6.982 1.90829 6.982L1.95029 6.996C2.18363 7.108 2.33296 7.31333 2.39829 7.612C2.56629 8.32133 2.73429 8.676 2.90229 8.676C3.07029 8.676 3.26629 8.49867 3.49029 8.144C3.60229 7.96667 3.71429 7.76133 3.82629 7.528C3.94763 7.29467 4.06896 7.03333 4.19029 6.744C4.20896 6.856 4.22763 6.912 4.24629 6.912C4.29296 6.912 4.37229 6.79533 4.48429 6.562C4.60563 6.32867 4.79696 6.00666 5.05829 5.596C5.20763 5.344 5.39429 5.05933 5.61829 4.742C5.85163 4.42466 6.09896 4.098 6.36029 3.762C6.62163 3.426 6.87363 3.10866 7.11629 2.81C7.36829 2.51133 7.59229 2.25466 7.78829 2.04C7.98429 1.82533 8.12896 1.68533 8.22229 1.62C8.57696 1.37733 8.85696 1.144 9.06229 0.919998C9.05296 0.985331 9.03896 1.046 9.02029 1.102C9.01096 1.14866 9.00629 1.18133 9.00629 1.2C9.00629 1.23733 9.02496 1.256 9.06229 1.256L9.45429 1.06V1.116C9.45429 1.19067 9.47296 1.228 9.51029 1.228C9.53829 1.228 9.59429 1.186 9.67829 1.102C9.76229 1.018 9.80896 0.957332 9.81829 0.919998L9.79029 1.116L10.2663 0.835999L10.1543 1.088C10.3036 0.985331 10.411 0.933998 10.4763 0.933998C10.5136 0.933998 10.5416 0.957331 10.5603 1.004C10.579 1.04133 10.5883 1.07866 10.5883 1.116C10.5883 1.172 10.565 1.23733 10.5183 1.312C10.4716 1.38666 10.411 1.47533 10.3363 1.578C10.2803 1.65266 10.187 1.76467 10.0563 1.914C9.93496 2.054 9.7483 2.264 9.49629 2.544C9.24429 2.81466 8.90829 3.19266 8.48829 3.678C8.37629 3.79933 8.20363 4.014 7.97029 4.322C7.73696 4.62066 7.47096 4.97066 7.17229 5.372C6.88296 5.764 6.59363 6.16067 6.30429 6.562C6.01496 6.96333 5.75829 7.32733 5.53429 7.654C5.31029 7.97133 5.15163 8.20933 5.05829 8.368L4.19029 9.838C4.00363 10.1553 3.84963 10.4167 3.72829 10.622C3.60696 10.818 3.51363 10.9533 3.44829 11.028C3.30829 11.196 3.15429 11.3453 2.98629 11.476L2.86029 11.406L2.74829 11.476L2.62229 11.616Z" fill="white"/>
</svg>
