<svg width="6" height="18" viewBox="0 0 6 18" fill="none" xmlns="http://www.w3.org/2000/svg">
<g clip-path="url(#clip0_4_571)">
<path d="M5.04 13.448L1.348 17.008C1.27736 17.0761 1.18826 17.1219 1.09178 17.1397C0.995298 17.1575 0.89571 17.1465 0.805418 17.1082C0.715126 17.0698 0.638119 17.0057 0.583989 16.9239C0.529859 16.842 0.500998 16.7461 0.501 16.648L0.501 1.07C0.501244 0.976179 0.527878 0.884325 0.577859 0.804928C0.62784 0.725531 0.69915 0.661798 0.783639 0.621014C0.868129 0.580229 0.962389 0.564039 1.05564 0.574293C1.1489 0.584547 1.23739 0.620831 1.311 0.678999L4.933 3.553C5.10989 3.69351 5.25276 3.87217 5.35094 4.07562C5.44912 4.27908 5.50007 4.50209 5.5 4.728L5.5 12.368C5.49988 12.5697 5.45907 12.7693 5.38004 12.9549C5.301 13.1404 5.18535 13.3082 5.04 13.448Z" fill="white"/>
<path fill-rule="evenodd" clip-rule="evenodd" d="M1.18255 17.6314C0.989596 17.667 0.790421 17.6451 0.609836 17.5683C0.429251 17.4916 0.275238 17.3634 0.166977 17.1997C0.0587196 17.0361 0.000997543 16.8442 0.000999928 16.648C0.000999928 16.648 0.000999928 16.648 0.000999928 16.648L0.000999928 1.07L0.00100183 1.0687C0.00148916 0.881062 0.0547585 0.69735 0.154719 0.538557C0.25468 0.379766 0.397299 0.2523 0.56628 0.170731C0.735263 0.089159 0.923782 0.0567818 1.11029 0.0772877C1.2968 0.0977955 1.47378 0.170366 1.621 0.286699L5.24379 3.16132C5.47964 3.34867 5.67034 3.58705 5.80125 3.85833C5.93213 4.12955 6.00007 4.42684 6 4.728C6 4.72805 6 4.72794 6 4.728L6 12.368C5.99983 12.6369 5.94543 12.9034 5.84005 13.1508C5.7347 13.3981 5.58056 13.6217 5.38685 13.8081C5.38679 13.8082 5.38691 13.8081 5.38685 13.8081L1.69506 17.3679C1.55379 17.5041 1.37551 17.5958 1.18255 17.6314ZM4.69333 13.0877C4.79023 12.9945 4.86733 12.8826 4.92002 12.7589C4.9727 12.6353 4.9999 12.5022 5 12.3678L5 4.728C5.00005 4.57739 4.96608 4.42856 4.90062 4.29292C4.83517 4.15729 4.73993 4.03818 4.622 3.94451L1.001 1.0713L1.001 16.648L4.69333 13.0877Z" fill="#C2CFE0"/>
</g>
<defs>
<clipPath id="clip0_4_571">
<rect width="6" height="18" fill="white" transform="translate(6 18) rotate(-180)"/>
</clipPath>
</defs>
</svg>
