<svg width="6" height="18" viewBox="0 0 6 18" fill="none" xmlns="http://www.w3.org/2000/svg">
<g clip-path="url(#clip0_4_569)">
<path d="M0.96 4.552L4.652 0.992002C4.72264 0.923914 4.81174 0.878112 4.90822 0.8603C5.0047 0.842487 5.10429 0.853452 5.19458 0.891829C5.28487 0.930206 5.36188 0.994299 5.41601 1.07612C5.47014 1.15795 5.499 1.25389 5.499 1.352V16.93C5.49876 17.0238 5.47212 17.1157 5.42214 17.1951C5.37216 17.2745 5.30085 17.3382 5.21636 17.379C5.13187 17.4198 5.03761 17.436 4.94436 17.4257C4.8511 17.4155 4.76261 17.3792 4.689 17.321L1.067 14.447C0.89011 14.3065 0.747243 14.1278 0.649064 13.9244C0.550885 13.7209 0.499929 13.4979 0.5 13.272V5.632C0.500125 5.4303 0.540926 5.2307 0.619964 5.04514C0.699002 4.85957 0.814653 4.69185 0.96 4.552Z" fill="white"/>
<path fill-rule="evenodd" clip-rule="evenodd" d="M4.81745 0.368609C5.0104 0.332985 5.20958 0.354915 5.39016 0.431669C5.57075 0.508423 5.72476 0.636608 5.83302 0.80026C5.94128 0.963908 5.999 1.15579 5.999 1.352C5.999 1.35201 5.999 1.352 5.999 1.352V16.93L5.999 16.9313C5.99851 17.1189 5.94524 17.3027 5.84528 17.4614C5.74532 17.6202 5.6027 17.7477 5.43372 17.8293C5.26474 17.9108 5.07622 17.9432 4.88971 17.9227C4.7032 17.9022 4.52622 17.8296 4.379 17.7133L0.756211 14.8387C0.520358 14.6513 0.329658 14.413 0.198752 14.1417C0.0678689 13.8704 -7.12609e-05 13.5732 5.6088e-08 13.272C5.6088e-08 13.272 5.6088e-08 13.2721 5.6088e-08 13.272V5.632C0.000166025 5.36307 0.0545679 5.09663 0.159952 4.8492C0.265303 4.60186 0.419441 4.37829 0.613153 4.19187C0.613213 4.19181 0.613092 4.19193 0.613153 4.19187L4.30494 0.632074C4.44621 0.495897 4.62449 0.404234 4.81745 0.368609ZM1.30667 4.91231C1.20977 5.00554 1.13267 5.11735 1.07998 5.24107C1.0273 5.36474 1.0001 5.49776 1 5.63218V13.272C0.999952 13.4226 1.03392 13.5714 1.09938 13.7071C1.16483 13.8427 1.26007 13.9618 1.378 14.0555L4.999 16.9287L4.999 1.352L1.30667 4.91231Z" fill="#C2CFE0"/>
</g>
<defs>
<clipPath id="clip0_4_569">
<rect width="6" height="18" fill="white"/>
</clipPath>
</defs>
</svg>
