<svg width="8" height="14" viewBox="0 0 8 14" fill="none" xmlns="http://www.w3.org/2000/svg">
<path fill-rule="evenodd" clip-rule="evenodd" d="M7.35401 0.646039C7.40057 0.692485 7.43751 0.747661 7.46272 0.808406C7.48793 0.869151 7.5009 0.934272 7.5009 1.00004C7.5009 1.06581 7.48793 1.13093 7.46272 1.19167C7.43751 1.25242 7.40057 1.30759 7.35401 1.35404L1.70701 7.00004L7.35401 12.646C7.4479 12.7399 7.50064 12.8673 7.50064 13C7.50064 13.1328 7.4479 13.2602 7.35401 13.354C7.26012 13.4479 7.13278 13.5007 7.00001 13.5007C6.86723 13.5007 6.7399 13.4479 6.64601 13.354L0.646008 7.35404C0.599445 7.30759 0.562502 7.25242 0.537296 7.19167C0.512089 7.13093 0.499115 7.06581 0.499115 7.00004C0.499115 6.93427 0.512089 6.86915 0.537296 6.80841C0.562502 6.74766 0.599445 6.69248 0.646008 6.64604L6.64601 0.646039C6.69245 0.599476 6.74763 0.562533 6.80838 0.537327C6.86912 0.51212 6.93424 0.499146 7.00001 0.499146C7.06578 0.499146 7.1309 0.51212 7.19164 0.537327C7.25239 0.562533 7.30756 0.599476 7.35401 0.646039Z" fill="black"/>
</svg>
