<svg width="8" height="14" viewBox="0 0 8 14" fill="none" xmlns="http://www.w3.org/2000/svg">
<path fill-rule="evenodd" clip-rule="evenodd" d="M7.35398 0.646039C7.40054 0.692485 7.43748 0.747661 7.46269 0.808406C7.4879 0.869151 7.50087 0.934272 7.50087 1.00004C7.50087 1.06581 7.4879 1.13093 7.46269 1.19167C7.43748 1.25242 7.40054 1.30759 7.35398 1.35404L1.70698 7.00004L7.35398 12.646C7.44787 12.7399 7.50061 12.8673 7.50061 13C7.50061 13.1328 7.44787 13.2602 7.35398 13.354C7.26009 13.4479 7.13275 13.5007 6.99998 13.5007C6.8672 13.5007 6.73986 13.4479 6.64598 13.354L0.645978 7.35404C0.599415 7.30759 0.562472 7.25242 0.537265 7.19167C0.512059 7.13093 0.499084 7.06581 0.499084 7.00004C0.499084 6.93427 0.512059 6.86915 0.537265 6.80841C0.562472 6.74766 0.599415 6.69248 0.645978 6.64604L6.64598 0.646039C6.69242 0.599476 6.7476 0.562533 6.80834 0.537327C6.86909 0.51212 6.93421 0.499146 6.99998 0.499146C7.06575 0.499146 7.13087 0.51212 7.19161 0.537327C7.25236 0.562533 7.30753 0.599476 7.35398 0.646039Z" fill="black"/>
</svg>
