<svg width="16" height="16" viewBox="0 0 16 16" fill="none" xmlns="http://www.w3.org/2000/svg">
<path fill-rule="evenodd" clip-rule="evenodd" d="M4.64604 1.64604C4.69248 1.59948 4.74766 1.56253 4.80841 1.53733C4.86915 1.51212 4.93427 1.49915 5.00004 1.49915C5.06581 1.49915 5.13093 1.51212 5.19167 1.53733C5.25242 1.56253 5.30759 1.59948 5.35404 1.64604L11.354 7.64604C11.4006 7.69248 11.4375 7.74766 11.4628 7.80841C11.488 7.86915 11.5009 7.93427 11.5009 8.00004C11.5009 8.06581 11.488 8.13093 11.4628 8.19167C11.4375 8.25242 11.4006 8.30759 11.354 8.35404L5.35404 14.354C5.26015 14.4479 5.13281 14.5007 5.00004 14.5007C4.86726 14.5007 4.73993 14.4479 4.64604 14.354C4.55215 14.2602 4.49941 14.1328 4.49941 14C4.49941 13.8673 4.55215 13.7399 4.64604 13.646L10.293 8.00004L4.64604 2.35404C4.59948 2.30759 4.56253 2.25242 4.53733 2.19167C4.51212 2.13093 4.49915 2.06581 4.49915 2.00004C4.49915 1.93427 4.51212 1.86915 4.53733 1.80841C4.56253 1.74766 4.59948 1.69249 4.64604 1.64604Z" fill="black"/>
</svg>
