<svg width="12" height="10" viewBox="0 0 12 10" fill="none" xmlns="http://www.w3.org/2000/svg">
<path d="M3.19794 0.900021V10H2.26194V1.73202H0.116943V0.900021H3.19794Z" fill="#2C2C2C"/>
<path d="M11.5872 9.16802V10H5.20421V9.33702L8.98721 5.63202C9.46388 5.16402 9.78454 4.76102 9.94921 4.42302C10.1225 4.07636 10.2092 3.72969 10.2092 3.38302C10.2092 2.84569 10.0229 2.42969 9.65021 2.13502C9.28621 1.83169 8.76188 1.68002 8.07721 1.68002C7.01121 1.68002 6.18354 2.01802 5.59421 2.69402L4.93121 2.12202C5.28654 1.70602 5.73721 1.38535 6.28321 1.16002C6.83788 0.934688 7.46188 0.822021 8.15521 0.822021C9.08254 0.822021 9.81488 1.04302 10.3522 1.48502C10.8982 1.91836 11.1712 2.51636 11.1712 3.27902C11.1712 3.74702 11.0672 4.19769 10.8592 4.63102C10.6512 5.06435 10.2569 5.56269 9.67621 6.12602L6.58221 9.16802H11.5872Z" fill="#2C2C2C"/>
</svg>
