<svg width="8" height="10" viewBox="0 0 8 10" fill="none" xmlns="http://www.w3.org/2000/svg">
<path d="M7.41995 9.10397V9.99997H0.545953V9.28597L4.61995 5.29597C5.13329 4.79197 5.47862 4.35797 5.65595 3.99397C5.84262 3.62063 5.93595 3.2473 5.93595 2.87397C5.93595 2.2953 5.73529 1.8473 5.33395 1.52997C4.94195 1.2033 4.37729 1.03997 3.63995 1.03997C2.49195 1.03997 1.60062 1.40397 0.965953 2.13197L0.251953 1.51597C0.63462 1.06797 1.11995 0.722633 1.70795 0.479967C2.30529 0.2373 2.97729 0.115967 3.72395 0.115967C4.72262 0.115967 5.51129 0.353967 6.08995 0.829967C6.67795 1.29663 6.97195 1.94063 6.97195 2.76197C6.97195 3.26597 6.85995 3.7513 6.63595 4.21797C6.41195 4.68463 5.98729 5.2213 5.36195 5.82797L2.02995 9.10397H7.41995Z" fill="#2C2C2C"/>
</svg>
