<svg width="8" height="14" viewBox="0 0 8 14" fill="none" xmlns="http://www.w3.org/2000/svg">
<path fill-rule="evenodd" clip-rule="evenodd" d="M0.645917 0.646039C0.692363 0.599476 0.747538 0.562533 0.808283 0.537327C0.869028 0.51212 0.93415 0.499146 0.999917 0.499146C1.06568 0.499146 1.13081 0.51212 1.19155 0.537327C1.2523 0.562533 1.30747 0.599476 1.35392 0.646039L7.35392 6.64604C7.40048 6.69248 7.43742 6.74766 7.46263 6.80841C7.48784 6.86915 7.50081 6.93427 7.50081 7.00004C7.50081 7.06581 7.48784 7.13093 7.46263 7.19167C7.43742 7.25242 7.40048 7.30759 7.35392 7.35404L1.35392 13.354C1.26003 13.4479 1.13269 13.5007 0.999917 13.5007C0.867141 13.5007 0.739804 13.4479 0.645917 13.354C0.55203 13.2602 0.499285 13.1328 0.499285 13C0.499285 12.8673 0.55203 12.7399 0.645917 12.646L6.29292 7.00004L0.645917 1.35404C0.599354 1.30759 0.562411 1.25242 0.537204 1.19167C0.511998 1.13093 0.499023 1.06581 0.499023 1.00004C0.499023 0.934272 0.511998 0.869151 0.537204 0.808406C0.562411 0.747661 0.599354 0.692485 0.645917 0.646039Z" fill="black"/>
</svg>
